{"title":"Criminal Minds S12E03 Taboo 1080p WEB-DL HEVC DD5.1 x265","uid":16031380,"size":695712120,"categoryP":"video","categoryS":"hd___tv_shows","magnet":"?xt=urn:btih:679ad457cc5907ff8a0b3c1651b29263a1e85d83&amp;dn=Criminal+Minds+S12E03+Taboo+1080p+WEB-DL+HEVC+DD5.1+x265&amp;tr=udp%3A%2F%2Ftracker.leechers-paradise.org%3A6969&amp;tr=udp%3A%2F%2Fzer0day.ch%3A1337&amp;tr=udp%3A%2F%2Fopen.demonii.com%3A1337&amp;tr=udp%3A%2F%2Ftracker.coppersurfer.tk%3A6969&amp;tr=udp%3A%2F%2Fexodus.desync.com%3A6969","seeders":8,"leechers":1,"uploader":"nayhtut","files":1,"time":1476428333,"description":"Source: Criminal Minds S12E03 Taboo 1080p WEB-DL DD5 1 H264-LiebeHD(1.59 GB)\r\n\r\n \r\nComplete name: Criminal.Minds.S12E03.Taboo.1080p.WEB.DL.HEVC.DD5.1.x265.mkv\r\nFormat                                   : Matroska\r\nFormat version                           : Version 4 / Version 2\r\nFile size                                : 663 MiB\r\nDuration                                 : 40mn 43s\r\nOverall bit rate                         : 2 278 Kbps\r\nWriting application                      : Lavf57.25.100\r\n\r\nVideo\r\n\r\nID                                       : 1\r\nFormat                                   : V_MPEGH/ISO/HEVC\r\nCodec ID                                 : V_MPEGH/ISO/HEVC\r\nDuration                                 : 40mn 43s\r\nBit rate                                 : 1 848 Kbps\r\nWidth                                    : 1 920 pixels\r\nHeight                                   : 1 080 pixels\r\nDisplay aspect ratio                     : 16:9\r\nFrame rate                               : 25.000 fps\r\nBits/(Pixel*Frame)                       : 0.036\r\nStream size                              : 538 MiB (81%)\r\nWriting library                          : Lavc57.48.101 libx265\r\nLanguage                                 : English\r\nDefault                                  : Yes\r\nForced                                   : No\r\nDURATION                                 : 00:40:43.571000000\r\n\r\nAudio\r\n\r\nID                                       : 2\r\nFormat                                   : AC-3\r\nFormat/Info                              : Audio Coding 3\r\nMode extension                           : CM (complete main)\r\nFormat settings, Endianness              : Big\r\nCodec ID                                 : A_AC3\r\nDuration                                 : 40mn 43s\r\nBit rate mode                            : Constant\r\nBit rate                                 : 384 Kbps\r\nChannel(s)                               : 6 channels\r\nChannel positions                        : Front: L C R, Side: L R, LFE\r\nSampling rate                            : 48.0 KHz\r\nBit depth                                : 16 bits\r\nCompression mode                         : Lossy\r\nStream size                              : 112 MiB (17%)\r\nWriting library                          : Lavc57.24.102 ac3\r\nLanguage                                 : English\r\nDefault                                  : Yes\r\nForced                                   : No\r\nDURATION                                 : 00:40:43.647000000\r\n\r\nText\r\n\r\nID                                       : 3\r\nFormat                                   : ASS\r\nCodec ID                                 : S_TEXT/ASS\r\nCompression mode                         : Lossless\r\nLanguage                                 : English","torrent":{"xt":"urn:btih:679ad457cc5907ff8a0b3c1651b29263a1e85d83","amp;dn":"Criminal+Minds+S12E03+Taboo+1080p+WEB-DL+HEVC+DD5.1+x265","amp;tr":["udp%3A%2F%2Ftracker.leechers-paradise.org%3A6969","udp%3A%2F%2Fzer0day.ch%3A1337","udp%3A%2F%2Fopen.demonii.com%3A1337","udp%3A%2F%2Ftracker.coppersurfer.tk%3A6969","udp%3A%2F%2Fexodus.desync.com%3A6969"],"infoHash":"679ad457cc5907ff8a0b3c1651b29263a1e85d83","infoHashBuffer":{"type":"Buffer","data":[103,154,212,87,204,89,7,255,138,11,60,22,81,178,146,99,161,232,93,131]},"announce":[],"urlList":[]}}